<svg width="520" height="420" viewBox="0 0 520 420" fill="none" xmlns="http://www.w3.org/2000/svg">
<path d="M361.981 161.49L358.728 159.829L329.798 167.427L293.183 202.535L279.585 198.641L261.769 178.786C261.769 178.786 229.622 178.901 214.951 192.952C213.843 192.971 205.605 198.66 201.442 204.712C197.278 210.764 194.33 212.997 190.238 219.927C186.145 226.857 181.499 234.455 179.033 241.767C176.567 249.079 171.778 263.913 170.581 269.105C169.384 274.298 168.062 284.913 168.062 284.913L195.044 351.063H397.755L361.981 161.49Z" fill="white"/>
<path d="M257.963 342.395C258.999 342.395 260.036 342.395 261.09 342.395C261.179 342.567 261.269 342.739 261.358 342.911C260.661 343.503 259.982 344.171 259.232 344.686C249.046 351.884 239.539 359.94 231.802 370.096C228.782 374.048 226.37 378.535 223.689 382.773C223.618 382.887 223.528 383.002 223.528 383.116C223.493 384.434 222.974 386.285 223.582 386.935C224.207 387.622 226.084 387.565 227.138 387.106C229.801 385.923 232.302 384.357 234.858 382.906C236.019 382.238 237.145 381.494 238.289 380.787C238.414 380.921 238.539 381.035 238.664 381.169C238.02 382.219 237.341 383.25 236.77 384.338C234.643 388.405 232.481 392.452 230.533 396.595C230.158 397.415 230.283 399.325 230.766 399.592C231.623 400.088 233.142 400.165 233.982 399.649C237.324 397.702 240.576 395.545 243.721 393.273C246.223 391.478 248.546 389.378 250.94 387.431C251.405 387.068 251.887 386.744 252.37 386.4C252.495 386.515 252.62 386.629 252.745 386.744C251.887 388.5 250.94 390.218 250.19 392.032C249.35 393.998 248.492 396.003 248.027 398.084C247.813 399.019 248.26 400.413 248.867 401.176C249.225 401.615 250.672 401.558 251.315 401.157C254.55 399.153 257.695 396.976 260.822 394.8C262.502 393.635 264.11 392.356 266.075 391.421C265.557 392.91 265.021 394.399 264.521 395.907C264.306 396.575 264.074 397.282 264.02 397.988C263.878 400.298 265.003 401.253 266.969 400.298C270.99 398.351 275.046 396.442 278.888 394.132C287.001 389.264 294.97 384.147 303.744 380.711C310.946 377.885 318.326 375.957 325.902 374.716C338.929 372.597 352.045 371.891 365.179 371.509C378.349 371.108 391.537 370.841 404.706 370.402C410.3 370.211 415.911 369.867 421.307 367.958C428.33 365.476 433.637 360.665 437.783 354.289C439.087 352.285 440.267 350.204 441.357 348.065C441.946 346.92 442.59 346.672 443.733 346.844C446.289 347.245 448.862 347.645 451.453 347.741C453.222 347.817 455.045 347.569 456.742 347.073C457.689 346.805 458.744 345.908 459.226 344.992C462.157 339.398 463.908 333.289 465.087 327.046C465.623 324.24 465.73 321.338 465.981 318.475C466.374 313.606 464.551 309.616 461.531 306.18C460.262 304.748 458.922 303.335 457.403 302.247C455.956 301.197 455.402 300.014 455.402 298.181C455.366 285.142 453.383 272.37 450.631 259.694C447.379 244.726 443.09 230.122 437.068 216.166C430.385 200.665 421.968 186.423 409.638 175.216C400.704 167.084 390.554 161.605 378.849 159.524C369.95 157.939 361.141 158.187 352.403 160.306C345.148 162.063 338 164.315 330.781 166.282C330.048 166.473 329.047 166.358 328.422 165.957C324.902 163.647 321.292 161.433 318.075 158.703C316.557 157.405 315.538 155.19 314.77 153.166C312.286 146.656 310.034 140.051 307.675 133.484C307.157 132.052 308.14 131.899 308.998 131.479C311.893 130.085 314.93 128.883 317.611 127.088C321.649 124.377 324.705 120.635 326.349 115.691C329.512 106.241 322.453 95.8363 313.179 96.4282C311.857 96.5045 310.552 96.9627 308.801 97.3254C308.944 94.8627 308.908 92.6482 309.248 90.4909C310.052 85.3363 311.66 80.43 313.93 75.7909C318.522 66.3791 314.037 56.8145 306.764 52.2136C301.314 48.7773 295.667 48.7009 290.02 51.9273C289.538 52.1945 289.038 52.4427 288.466 52.7291C288.216 52.29 287.912 51.9463 287.769 51.5263C285.875 45.9136 281.89 43.2027 276.708 41.5609C271.043 39.7663 263.234 43.2218 260.179 48.6818C259.446 49.9991 259.464 50.7245 260.643 51.7554C263.27 54.0845 264.771 57.2918 265.825 60.7091C265.968 61.1863 265.593 61.8354 265.45 62.4082C265.021 62.0454 264.431 61.7782 264.163 61.32C262.716 58.8191 261.751 55.8791 259.893 53.8363C254.568 47.9945 241.201 47.7845 236.519 59.3536C232.874 68.3454 235.233 79.4563 243.578 83.8282C244.096 84.0954 244.632 85.05 244.632 85.6609C244.579 94.5573 244.561 103.53 242.22 112.121C240.987 116.607 238.735 120.788 236.841 125.065C235.215 128.768 233.589 132.453 233.41 136.634C233.089 144.442 237.181 149.52 242.97 153.166C248.313 156.545 254.3 157.156 260.357 156.011C263.556 155.4 266.647 154.235 269.792 153.319C270.132 153.224 270.489 153.166 270.9 153.09C271.025 153.415 271.204 153.644 271.186 153.873C271.115 158.684 271.115 163.495 270.847 168.286C270.775 169.489 269.882 170.73 269.131 171.761C268.559 172.582 267.541 173.04 266.88 173.804C263.895 177.259 260.304 178.004 255.944 177.965C235.197 177.775 217.721 186.232 203.104 201.734C192.007 213.513 184.091 227.525 177.961 242.779C173.226 254.558 169.938 266.795 167.972 279.434C167.847 280.235 168.151 281.095 168.258 281.935C168.419 281.915 168.562 281.915 168.723 281.896C169.241 279.166 169.741 276.417 170.26 273.687C172.493 261.775 176.031 250.301 180.803 239.266C186.664 225.712 194.044 213.245 203.979 202.65C213.182 192.856 223.868 185.678 236.448 181.917C243.989 179.665 251.708 178.939 259.535 179.34C260.768 179.397 261.09 179.97 261.036 181.211C260.59 191.845 261.179 202.44 263.145 212.883C263.681 215.746 264.717 218.572 265.968 221.168C267.398 224.146 269.917 224.7 272.008 222.295C274.135 219.832 275.493 220.099 278.155 221.645C283.194 224.585 288.645 224.127 293.773 221.34C295.06 220.634 295.649 220.939 296.561 221.951C298.133 223.688 299.759 225.464 301.671 226.724C304.119 228.346 305.853 228.117 307.533 225.674C310.177 221.817 312.786 217.827 314.68 213.532C317.95 206.105 320.827 198.469 323.597 190.795C326.117 183.807 328.261 176.667 330.548 169.585C330.959 168.267 331.46 167.236 332.871 166.874C340.895 164.812 348.9 162.731 356.906 160.65C357.067 160.612 357.263 160.669 357.71 160.707C357.156 161.223 356.816 161.681 356.37 161.948C348.739 166.435 344.147 173.632 340.877 181.936C335.981 194.384 334.783 207.537 335.069 220.863C335.319 232.012 336.535 243.046 338.393 254.043C340.394 265.841 342.985 277.467 346.273 288.922C346.613 290.086 346.541 290.678 345.38 291.194C342.539 292.415 341.109 294.783 341.467 298.047C341.77 300.911 342.217 303.775 342.842 306.581C343.45 309.33 343.414 309.578 340.877 310.094C340.341 310.208 339.805 310.38 339.269 310.533C337.821 310.953 336.678 310.743 335.373 309.655C330.423 305.474 324.58 304.71 318.54 305.455C312.572 306.18 306.925 308.146 302.315 312.423C300.135 314.446 298.419 317.062 296.257 319.715M430.01 278.727C430.027 278.441 430.027 278.155 430.045 277.868C429.563 277.735 429.08 277.563 428.58 277.505C415.339 275.749 402.223 277.315 389.16 279.529C382.227 280.694 375.347 282.259 368.521 283.958C362.713 285.409 356.977 287.185 351.259 289.036C347.935 290.105 347.989 290.315 346.952 286.841C346.935 286.784 346.917 286.707 346.899 286.65C343.307 273.229 340.287 259.675 338.447 245.834C336.338 229.969 335.284 214.124 337.821 198.221C339.179 189.706 341.61 181.612 346.041 174.319C351.795 164.85 359.854 159.466 370.576 159.848C379.01 160.154 387.141 162.311 394.771 166.339C406.154 172.353 415.053 181.383 422.486 192.188C430.081 203.242 435.924 215.326 440.249 228.194C442.858 235.983 445.413 243.829 447.414 251.809C449.398 259.732 450.988 267.826 452.168 275.921C453.24 283.175 453.526 290.583 454.133 297.914C454.169 298.391 454.008 298.887 453.919 299.517C453.293 299.288 452.847 299.116 452.382 298.964C446.771 297.035 441.214 294.859 435.531 293.236C423.505 289.8 411.157 288.578 398.774 287.91C386.069 287.223 373.363 287.204 360.694 288.54C360.051 288.616 359.39 288.464 358.728 288.425C370.361 284.435 382.173 281.858 394.11 280.006C406.011 278.174 417.983 277.677 430.01 278.727ZM282.104 373.8C281.961 373.609 281.818 373.418 281.658 373.208C281.104 373.609 280.478 373.934 280.014 374.411C274.903 379.642 270.025 385.159 264.628 390.046C260.679 393.635 256.086 396.461 251.726 399.535C251.101 399.974 250.136 399.821 249.314 399.935C249.314 399.057 249.1 398.084 249.368 397.301C251.655 390.867 254.764 384.854 258.874 379.585C261.787 375.862 265.343 372.731 268.595 369.333C269.06 368.855 269.435 368.283 269.846 367.767C269.703 367.595 269.542 367.424 269.399 367.252C268.881 367.615 268.291 367.901 267.845 368.359C265.253 370.879 262.627 373.38 260.125 376.015C258.338 377.905 256.98 380.329 255.032 381.99C249.403 386.801 243.614 391.383 237.806 395.945C236.341 397.091 234.607 397.931 232.892 398.599C231.516 399.153 230.98 398.465 231.534 396.995C232.195 395.239 232.91 393.464 233.803 391.822C239.843 380.768 247.027 370.707 256.408 362.594C256.962 362.116 257.409 361.467 257.909 360.895C257.784 360.723 257.659 360.57 257.516 360.398C256.98 360.704 256.355 360.914 255.926 361.353C251.834 365.534 247.777 369.753 243.721 373.991C242.935 374.812 242.363 375.957 241.451 376.549C236.859 379.604 232.213 382.582 227.513 385.426C226.673 385.942 225.44 385.751 224.404 385.885C224.618 384.777 224.565 383.479 225.119 382.62C228.442 377.58 231.587 372.349 235.394 367.729C242.72 358.814 251.476 351.635 260.786 345.221C271.222 338.043 282.212 331.991 293.702 327.008C294.595 326.626 295.453 326.073 295.703 327.772C296.203 331.323 298.151 333.9 300.831 335.885C303.619 337.947 306.711 339.035 310.088 339.475C320.47 340.811 329.691 338.405 337.035 330.063C340.841 325.748 342.682 318.742 338.983 313.435C337.964 311.984 339.215 311.812 340.126 311.621C349.704 309.655 359.336 308.28 369.128 308.261C378.724 308.223 388.249 308.986 397.577 311.354C404.027 312.995 410.442 314.924 416.733 317.176C426.453 320.651 435.728 325.195 444.126 331.59C445.252 332.449 445.484 333.327 445.02 334.606C443.59 338.444 442.393 342.415 440.713 346.137C434.477 359.978 424.684 368.34 409.746 368.76C396.254 369.142 382.763 369.695 369.271 370.173C361.391 370.459 353.493 370.745 345.612 371.089C342.985 371.204 342.932 371.299 342.592 368.588C341.306 357.859 338.929 347.397 335.784 337.107C335.23 335.275 334.712 335.275 333.407 336.229C329.101 339.341 324.366 341.25 319.148 341.727C316.664 341.956 314.18 342.109 311.571 342.319C311.785 343.102 311.911 343.732 312.125 344.343C315.395 353.411 317.629 362.746 318.897 372.349C319.112 373.953 318.826 374.659 317.182 375.041C309.355 376.893 301.689 379.432 294.577 383.441C286.089 388.233 277.762 393.368 269.346 398.294C268.041 399.057 266.451 400.317 265.128 398.885C263.949 397.587 265.128 396.041 265.79 394.762C269.685 387.335 274.885 381.035 280.782 375.365C281.3 374.888 281.675 374.315 282.104 373.8ZM300.403 130.41C300.349 130.715 300.313 131.002 300.26 131.307C301.511 131.536 302.779 131.995 304.03 131.975C305.549 131.956 306.192 132.682 306.693 134.075C309.445 141.75 312.268 149.367 314.984 157.042C315.27 157.863 315.395 159.027 315.091 159.772C312.84 165.175 310.749 170.673 308.051 175.808C304.709 182.165 300.492 187.855 294.488 191.692C290.199 194.441 285.642 195.224 280.818 193.658C275.689 191.997 273.956 187.396 272.759 182.509C271.365 176.858 271.883 171.112 272.544 165.423C272.634 164.697 273.348 163.838 273.992 163.456C279.013 160.516 282.855 156.526 284.249 150.417C284.803 147.974 285.142 145.435 283.695 142.991C283.302 143.22 283.069 143.315 282.908 143.468C276.583 149.367 269.238 153.109 261.001 154.598C254.818 155.725 248.635 155.343 243.113 151.696C237.913 148.241 233.41 142.456 235.072 134.553C235.751 131.326 237.038 128.195 238.378 125.179C240.576 120.254 243.31 115.557 244.185 110.097C244.864 105.897 245.168 101.621 245.615 97.3827C246.169 92.1327 246.169 92.1327 251.012 90.9682C255.229 89.9563 255.461 89.3645 253.049 85.7563C253.031 85.7182 253.067 85.6418 253.138 85.2982C256.98 85.1073 260.858 85.0882 264.932 86.4436C264.163 86.94 263.681 87.2263 263.216 87.5318C260.947 89.04 261.001 90.9109 263.341 92.2854C264.592 93.0109 265.861 93.66 267.076 94.4236C269.471 95.9127 271.758 97.5736 274.206 98.9482C276.136 100.036 277.369 99.0627 277.172 96.7718C277.065 95.4354 276.672 94.1373 276.422 92.8009C277.19 92.9536 277.691 93.2972 278.048 93.7745C279.799 95.9891 281.711 98.0891 283.194 100.475C285.303 103.874 287.001 107.539 289.02 110.995C290.914 114.24 292.915 114.565 295.524 111.968C297.651 109.868 299.438 107.405 301.528 105.267C303.44 103.32 305.352 101.277 307.604 99.8645C312.089 97.0009 316.771 96.7527 321.06 100.437C325.08 103.912 326.671 108.417 325.509 113.954C324.705 117.791 322.686 120.807 320.041 123.346C314.859 128.291 309.087 131.632 301.779 130.334C301.332 130.276 300.849 130.391 300.403 130.41ZM459.333 342.892C457.493 341.002 456.26 339.551 454.848 338.329C444.502 329.356 433.226 322.083 420.682 317.157C410.174 313.034 399.489 309.731 388.32 308.223C378.313 306.867 368.324 306.295 358.282 307.497C354.44 307.955 350.598 308.528 346.756 309.101C345.398 309.311 344.558 309.12 344.29 307.421C343.897 304.901 343.182 302.438 342.789 299.918C342.021 295.05 343.682 292.32 348.275 291.728C356.584 290.64 364.911 289.552 373.274 289.075C389.321 288.158 405.314 289.17 421.218 291.633C429.956 292.988 438.533 294.935 446.878 298.066C452.007 299.995 456.724 302.553 460.477 306.867C463.229 310.017 464.694 313.606 464.712 318.074C464.73 322.064 464.39 325.977 463.407 329.776C462.264 334.034 460.799 338.195 459.333 342.892ZM316.789 159.562C320.935 162.445 324.955 165.194 328.922 168.057C329.262 168.305 329.405 169.355 329.244 169.89C327.207 176.343 325.259 182.853 322.954 189.21C319.97 197.4 316.825 205.552 313.429 213.57C311.839 217.312 309.659 220.805 307.443 224.185C305.692 226.838 303.691 226.991 301.225 225.044C299.956 224.032 298.794 222.81 297.812 221.474C292.755 214.544 289.592 206.545 286.768 198.393C285.928 195.968 285.964 195.892 288.377 195.51C292.022 194.937 295.149 193.162 297.972 190.775C304.673 185.125 309.051 177.622 312.697 169.565C314.126 166.358 315.359 163.075 316.789 159.562ZM313.68 334.072C311.321 333.69 308.873 333.595 306.621 332.85C304.495 332.144 302.35 331.017 300.635 329.528C296.686 326.111 296.954 320.345 301.01 315.592C307.765 307.669 321.953 304.309 331.245 308.452C336.481 310.781 339.036 315.592 336.999 320.479C335.927 323.056 333.979 325.5 331.906 327.295C326.671 331.8 320.434 333.709 313.68 334.072ZM270.007 172.868C270.168 172.983 270.346 173.097 270.507 173.231C270.543 173.804 270.543 174.376 270.614 174.949C271.097 178.309 271.293 181.784 272.151 185.029C273.563 190.317 276.475 194.326 281.979 195.3C283.373 195.548 283.266 196.445 282.891 197.495C281.479 201.409 280.282 205.456 278.566 209.217C276.797 213.093 274.742 216.873 272.401 220.385C270.4 223.364 268.005 223.001 266.647 219.641C265.468 216.72 264.521 213.589 264.02 210.439C262.466 200.817 262.091 191.062 262.412 181.306C262.43 180.6 262.466 179.645 262.859 179.264C265.164 177.049 267.612 174.987 270.007 172.868ZM446.789 333.805C450.595 336.286 453.955 338.768 456.635 342.166C458.475 344.495 458.047 345.717 455.259 346.252C454.651 346.366 454.026 346.424 453.418 346.385C450.363 346.156 447.307 345.87 444.234 345.622C442.929 345.526 442.911 344.782 443.304 343.732C444.144 341.479 444.966 339.226 445.77 336.955C446.11 335.981 446.396 335.007 446.789 333.805Z" fill="black"/>
<path d="M232.195 230.885C231.909 231.305 231.534 231.687 231.337 232.145C228.103 239.629 225.798 247.456 223.886 255.417C221.116 266.967 219.311 278.727 218.221 290.583C216.988 303.889 216.238 317.234 217.078 330.635C217.292 334.053 217.542 337.47 217.81 340.868C217.864 341.479 218.15 342.071 218.614 342.644C216.488 304.481 219.275 267.082 232.749 231.229C232.552 231.095 232.374 231 232.195 230.885Z" fill="black"/>
<path d="M430.01 278.727C417.983 277.677 406.011 278.174 394.11 280.025C382.173 281.877 370.361 284.455 358.728 288.445C359.39 288.483 360.051 288.616 360.694 288.559C373.381 287.223 386.086 287.223 398.774 287.929C411.157 288.616 423.505 289.819 435.531 293.255C441.214 294.878 446.771 297.055 452.382 298.983C452.829 299.135 453.293 299.307 453.919 299.536C454.008 298.906 454.187 298.41 454.133 297.933C453.526 290.602 453.24 283.195 452.168 275.94C450.988 267.826 449.398 259.751 447.414 251.828C445.413 243.848 442.858 236.002 440.249 228.213C435.924 215.326 430.081 203.261 422.486 192.207C415.053 181.383 406.136 172.372 394.771 166.358C387.141 162.33 379.01 160.173 370.576 159.867C359.854 159.485 351.795 164.888 346.041 174.338C341.61 181.631 339.179 189.725 337.821 198.24C335.266 214.162 336.338 230.007 338.447 245.853C340.287 259.694 343.289 273.248 346.899 286.669C346.917 286.726 346.935 286.803 346.952 286.86C347.989 290.335 347.935 290.125 351.259 289.055C356.959 287.204 362.713 285.409 368.521 283.977C375.347 282.278 382.227 280.713 389.16 279.548C402.223 277.334 415.339 275.768 428.58 277.525C429.08 277.582 429.563 277.773 430.045 277.887C430.027 278.155 430.027 278.441 430.01 278.727Z" fill="white"/>
<path d="M282.104 373.8C281.675 374.315 281.318 374.907 280.836 375.365C274.939 381.035 269.739 387.335 265.843 394.762C265.182 396.041 264.003 397.587 265.182 398.885C266.504 400.336 268.095 399.057 269.399 398.294C277.816 393.368 286.143 388.252 294.631 383.441C301.743 379.413 309.391 376.893 317.236 375.041C318.88 374.659 319.165 373.953 318.951 372.349C317.682 362.727 315.449 353.392 312.179 344.343C311.964 343.751 311.839 343.102 311.625 342.319C314.251 342.109 316.735 341.956 319.201 341.727C324.401 341.25 329.154 339.341 333.461 336.229C334.765 335.275 335.284 335.275 335.838 337.107C338.965 347.397 341.341 357.859 342.646 368.588C342.968 371.299 343.039 371.204 345.666 371.089C353.546 370.745 361.444 370.459 369.325 370.173C382.816 369.676 396.308 369.123 409.799 368.76C424.738 368.34 434.53 359.978 440.767 346.137C442.447 342.415 443.644 338.463 445.073 334.606C445.538 333.346 445.306 332.449 444.18 331.59C435.781 325.195 426.507 320.632 416.786 317.176C410.496 314.943 404.081 313.015 397.63 311.354C388.302 308.967 378.778 308.223 369.182 308.261C359.389 308.299 349.758 309.655 340.18 311.621C339.269 311.812 338.018 311.984 339.036 313.435C342.735 318.723 340.895 325.748 337.088 330.063C329.744 338.405 320.524 340.83 310.141 339.475C306.764 339.035 303.655 337.947 300.885 335.885C298.205 333.9 296.275 331.323 295.757 327.772C295.506 326.073 294.649 326.626 293.755 327.008C282.265 332.01 271.293 338.062 260.84 345.221C251.512 351.616 242.756 358.814 235.447 367.729C231.659 372.349 228.496 377.58 225.172 382.62C224.618 383.46 224.672 384.777 224.458 385.885C225.512 385.751 226.727 385.942 227.567 385.426C232.267 382.582 236.913 379.604 241.505 376.549C242.416 375.957 242.988 374.812 243.774 373.991C247.831 369.753 251.887 365.534 255.979 361.353C256.408 360.914 257.034 360.723 257.57 360.398C257.695 360.57 257.82 360.723 257.963 360.895C257.462 361.467 257.034 362.116 256.462 362.594C247.08 370.707 239.897 380.768 233.857 391.822C232.963 393.464 232.249 395.22 231.587 396.995C231.034 398.465 231.57 399.153 232.946 398.599C234.661 397.931 236.394 397.091 237.86 395.945C243.667 391.402 249.457 386.801 255.086 381.99C257.034 380.329 258.392 377.924 260.179 376.015C262.662 373.38 265.289 370.879 267.898 368.359C268.345 367.92 268.935 367.615 269.453 367.252C269.596 367.424 269.757 367.595 269.899 367.767C269.488 368.283 269.095 368.855 268.649 369.333C265.396 372.731 261.822 375.862 258.928 379.585C254.818 384.854 251.708 390.867 249.421 397.301C249.153 398.084 249.368 399.057 249.368 399.935C250.172 399.821 251.154 399.974 251.78 399.535C256.14 396.461 260.732 393.655 264.682 390.046C270.06 385.159 274.939 379.642 280.067 374.411C280.55 373.934 281.157 373.609 281.711 373.208C281.8 373.399 281.943 373.609 282.104 373.8Z" fill="white"/>
<path d="M300.403 130.41C300.867 130.391 301.332 130.276 301.761 130.353C309.069 131.651 314.841 128.31 320.023 123.365C322.686 120.826 324.687 117.81 325.491 113.973C326.653 108.436 325.062 103.931 321.042 100.456C316.771 96.7718 312.089 97.02 307.586 99.8836C305.352 101.315 303.423 103.358 301.511 105.286C299.42 107.425 297.615 109.887 295.506 111.987C292.897 114.584 290.896 114.24 289.002 111.014C286.983 107.558 285.285 103.874 283.177 100.495C281.693 98.0891 279.781 95.9891 278.03 93.7936C277.655 93.3354 277.155 92.9918 276.404 92.82C276.654 94.1372 277.047 95.4545 277.155 96.7909C277.351 99.0818 276.118 100.055 274.188 98.9672C271.74 97.6118 269.435 95.9318 267.058 94.4427C265.843 93.6791 264.557 93.03 263.324 92.3045C260.965 90.93 260.929 89.0591 263.198 87.5509C263.663 87.2454 264.146 86.9591 264.914 86.4627C260.84 85.1072 256.962 85.1263 253.12 85.3172C253.049 85.6609 253.013 85.7372 253.031 85.7754C255.443 89.3836 255.211 89.9945 250.994 90.9872C246.133 92.1518 246.151 92.1518 245.597 97.4018C245.15 101.64 244.829 105.916 244.168 110.116C243.292 115.576 240.54 120.273 238.36 125.198C237.02 128.215 235.733 131.345 235.054 134.572C233.41 142.475 237.895 148.26 243.095 151.715C248.617 155.381 254.8 155.763 260.983 154.617C269.203 153.109 276.565 149.386 282.891 143.487C283.069 143.335 283.302 143.239 283.677 143.01C285.124 145.454 284.785 147.993 284.231 150.436C282.837 156.565 278.977 160.535 273.974 163.475C273.33 163.857 272.616 164.716 272.526 165.442C271.865 171.131 271.347 176.877 272.741 182.528C273.938 187.415 275.671 191.997 280.8 193.677C285.625 195.243 290.181 194.46 294.47 191.711C300.474 187.874 304.691 182.185 308.033 175.827C310.731 170.692 312.84 165.194 315.073 159.791C315.395 159.027 315.252 157.882 314.966 157.061C312.232 149.386 309.409 141.75 306.675 134.095C306.174 132.701 305.513 131.975 304.012 131.995C302.761 132.014 301.493 131.575 300.242 131.326C300.313 131.002 300.349 130.715 300.403 130.41ZM273.992 104.485C274.063 104.771 274.135 105.057 274.206 105.344C272.794 105.916 271.401 106.718 269.935 107.043C266.915 107.711 263.931 107.444 261.215 105.745C259.946 104.943 259.875 103.167 260.75 101.373C261.519 99.8072 262.484 100.399 263.538 100.895C264.431 101.335 265.361 101.697 266.29 102.003C268.845 102.862 271.418 103.664 273.992 104.485ZM252.602 104.981C251.601 104.866 251.137 104.809 250.672 104.752C248.849 104.542 247.402 103.625 246.419 101.965C245.633 100.666 245.955 100.094 247.402 100.017C248.992 99.9218 250.583 99.7882 252.173 99.6545C254.943 99.4445 255.854 100.762 254.514 103.377C253.585 105.191 252.387 106.89 251.172 108.532C249.439 110.861 249.421 111.434 251.387 113.457C251.726 113.801 252.012 114.221 252.62 114.965C249.082 113.896 248.063 111.071 249.886 108.532C250.654 107.425 251.512 106.375 252.602 104.981ZM316.896 106.775C316.968 107.043 317.057 107.31 317.128 107.558C316.628 107.749 316.146 108.093 315.645 108.131C309.677 108.57 305.96 112.102 303.744 117.791C303.44 118.555 302.994 119.261 302.618 119.986C302.386 119.834 302.136 119.7 301.904 119.547C302.636 115.786 304.423 112.598 307.282 110.155C310.106 107.749 313.304 106.451 316.896 106.775ZM250.511 124.205C256.122 126.935 259.714 124.645 262.126 118.975C262.591 123.365 260.214 126.63 256.515 127.165C253.299 127.623 250.815 126.515 250.511 124.205Z" fill="white"/>
<path d="M459.333 342.892C460.798 338.195 462.264 334.034 463.372 329.776C464.372 325.977 464.694 322.083 464.676 318.074C464.658 313.606 463.193 310.017 460.441 306.867C456.688 302.553 451.971 299.995 446.842 298.066C438.497 294.936 429.92 293.007 421.182 291.633C405.278 289.151 389.285 288.158 373.238 289.075C364.893 289.552 356.548 290.64 348.239 291.728C343.664 292.32 341.985 295.05 342.753 299.918C343.146 302.438 343.861 304.901 344.254 307.421C344.522 309.12 345.362 309.311 346.72 309.101C350.562 308.509 354.404 307.956 358.246 307.497C368.288 306.295 378.277 306.867 388.284 308.223C399.453 309.731 410.139 313.034 420.646 317.157C433.19 322.083 444.466 329.337 454.812 338.329C456.26 339.551 457.493 341.002 459.333 342.892Z" fill="white"/>
<path d="M316.789 159.562C315.359 163.075 314.126 166.358 312.679 169.527C309.034 177.584 304.638 185.086 297.955 190.737C295.113 193.124 292.004 194.899 288.359 195.472C285.946 195.854 285.911 195.93 286.75 198.355C289.574 206.525 292.737 214.505 297.794 221.435C298.759 222.772 299.938 223.994 301.207 225.005C303.673 226.972 305.674 226.819 307.425 224.146C309.641 220.767 311.821 217.274 313.412 213.532C316.807 205.514 319.952 197.381 322.936 189.172C325.259 182.815 327.189 176.305 329.226 169.852C329.387 169.317 329.262 168.286 328.904 168.019C324.955 165.213 320.935 162.445 316.789 159.562Z" fill="white"/>
<path d="M313.68 334.072C320.434 333.69 326.653 331.8 331.907 327.295C333.997 325.5 335.927 323.056 336.999 320.479C339.036 315.611 336.481 310.781 331.245 308.452C321.935 304.309 307.747 307.669 301.01 315.592C296.954 320.345 296.686 326.111 300.635 329.528C302.35 331.017 304.495 332.125 306.621 332.85C308.873 333.614 311.321 333.69 313.68 334.072ZM316.324 317.768C316.789 317.348 317.307 316.585 317.968 316.355C321.328 315.115 324.741 313.969 328.154 312.881C328.672 312.728 329.315 313.072 329.905 313.186C329.512 313.721 329.226 314.542 328.726 314.733C325.849 315.859 322.918 316.89 320.005 317.864C318.951 318.207 318.612 318.742 318.987 319.887C319.559 321.625 320.077 323.381 320.488 325.156C320.577 325.576 320.148 326.111 319.97 326.607C319.577 326.378 318.933 326.245 318.826 325.901C317.968 323.362 317.236 320.785 316.324 317.768Z" fill="white"/>
<path d="M270.007 172.868C267.612 174.987 265.182 177.049 262.859 179.245C262.448 179.626 262.43 180.581 262.412 181.287C262.091 191.043 262.466 200.779 264.021 210.42C264.521 213.551 265.468 216.682 266.647 219.622C268.005 222.982 270.4 223.345 272.401 220.366C274.76 216.873 276.797 213.074 278.566 209.198C280.282 205.437 281.479 201.39 282.891 197.476C283.266 196.445 283.373 195.529 281.979 195.281C276.476 194.307 273.563 190.317 272.151 185.01C271.293 181.765 271.097 178.309 270.614 174.93C270.525 174.357 270.543 173.785 270.507 173.212C270.329 173.116 270.168 172.983 270.007 172.868Z" fill="white"/>
<path d="M446.789 333.805C446.396 335.007 446.11 335.981 445.788 336.916C444.984 339.188 444.18 341.441 443.322 343.694C442.929 344.763 442.947 345.488 444.251 345.584C447.307 345.832 450.363 346.118 453.436 346.347C454.044 346.385 454.669 346.328 455.277 346.214C458.064 345.679 458.493 344.457 456.653 342.128C453.937 338.768 450.577 336.286 446.789 333.805Z" fill="white"/>
<path d="M273.992 104.485C271.418 103.664 268.845 102.862 266.29 102.022C265.361 101.716 264.431 101.335 263.538 100.915C262.484 100.399 261.519 99.8264 260.75 101.392C259.857 103.186 259.946 104.981 261.215 105.764C263.931 107.463 266.933 107.73 269.935 107.062C271.401 106.737 272.777 105.935 274.206 105.363C274.135 105.057 274.063 104.771 273.992 104.485Z" fill="black"/>
<path d="M252.602 104.981C251.53 106.375 250.672 107.425 249.886 108.532C248.081 111.071 249.082 113.896 252.62 114.965C252.012 114.221 251.726 113.801 251.387 113.457C249.421 111.453 249.439 110.861 251.172 108.532C252.387 106.89 253.585 105.21 254.514 103.377C255.854 100.762 254.943 99.4445 252.173 99.6545C250.583 99.7882 248.992 99.9218 247.402 100.017C245.972 100.094 245.651 100.666 246.419 101.965C247.402 103.625 248.831 104.542 250.672 104.752C251.137 104.809 251.601 104.847 252.602 104.981Z" fill="black"/>
<path d="M316.896 106.775C313.304 106.451 310.106 107.749 307.282 110.155C304.423 112.598 302.636 115.786 301.904 119.547C302.136 119.7 302.386 119.834 302.618 119.986C302.994 119.261 303.44 118.555 303.744 117.791C305.96 112.102 309.677 108.57 315.645 108.131C316.146 108.093 316.646 107.768 317.128 107.558C317.057 107.31 316.968 107.043 316.896 106.775Z" fill="black"/>
<path d="M250.511 124.205C250.797 126.515 253.299 127.623 256.533 127.165C260.214 126.63 262.591 123.365 262.144 118.975C259.714 124.645 256.122 126.935 250.511 124.205Z" fill="black"/>
<path d="M316.324 317.768C317.236 320.785 317.968 323.362 318.808 325.901C318.915 326.245 319.559 326.378 319.952 326.607C320.131 326.13 320.559 325.576 320.47 325.156C320.059 323.381 319.541 321.625 318.969 319.887C318.594 318.742 318.933 318.207 319.988 317.864C322.918 316.89 325.831 315.859 328.708 314.733C329.208 314.542 329.494 313.721 329.887 313.186C329.298 313.072 328.654 312.728 328.136 312.881C324.723 313.969 321.328 315.115 317.95 316.355C317.307 316.585 316.807 317.348 316.324 317.768Z" fill="black"/>
<path d="M288.698 225.254C288.698 225.254 286.929 305.455 297.829 324.946C297.829 324.946 271.579 334.186 262.144 342.892H253.978C253.978 342.892 247.259 295.012 277.351 223.364C277.333 223.364 281.014 227.296 288.698 225.254Z" fill="black"/>
<path d="M149.835 238.178L196.117 351.082H80.4658L33.6479 240.565C32.4685 237.796 34.3448 234.665 37.1861 234.627L143.152 233.539C146.047 233.52 148.673 235.334 149.835 238.178Z" fill="#C4C4C4"/>
<path d="M262.126 342.892L196.117 342.682L199.476 351.063H250.744L262.126 342.892Z" fill="#C4C4C4"/>
<path d="M209.805 348.447H218.239C219.061 348.447 219.704 347.741 219.704 346.882C219.704 346.004 219.043 345.316 218.239 345.316H209.805C208.983 345.316 208.339 346.023 208.339 346.882C208.322 347.741 208.983 348.447 209.805 348.447Z" fill="white"/>
<path d="M204.158 348.734C203.201 348.734 202.425 347.905 202.425 346.882C202.425 345.859 203.201 345.03 204.158 345.03C205.115 345.03 205.891 345.859 205.891 346.882C205.891 347.905 205.115 348.734 204.158 348.734Z" fill="white"/>
<path d="M75.1586 310.418C77.4101 307.994 77.428 306.619 75.0335 304.309C71.1201 300.529 66.3133 298.429 61.4528 296.501C59.2012 295.604 56.9497 294.84 54.448 295.585C49.5517 297.055 47.8363 303.278 51.428 307.154C52.393 308.185 52.6432 308.891 52.0714 310.304C51.0349 312.862 51.9462 315.84 54.2693 317.845C55.5022 318.914 56.9318 319.715 58.272 320.632C56.5565 326.073 57.9146 329.127 62.9717 331.342C63.3648 331.514 63.8294 332.067 63.883 332.506C64.3476 336.038 66.2239 338.501 69.4583 339.15C74.7655 340.238 79.8761 339.475 84.7187 336.821C84.8796 336.725 85.0404 336.63 85.2012 336.515C86.4699 335.485 88.0425 334.549 87.5957 332.468C87.1847 330.521 85.4335 330.349 84.004 329.815C83.5036 329.643 82.9675 329.605 82.1098 329.452C82.6995 328.86 83.0748 328.459 83.45 328.096C85.3084 326.34 85.237 324.24 83.0212 322.98C81.4129 322.083 79.5545 321.682 77.8212 321.071C77.4995 320.956 77.16 320.88 76.5167 320.708C78.1071 319.964 79.4294 319.486 80.6266 318.761C82.8603 317.405 83.0748 315.592 81.0019 313.969C79.2328 312.614 77.1778 311.64 75.1586 310.418ZM65.7414 309.769C62.1497 309.273 59.0761 308.986 56.0562 308.395C52.5359 307.707 50.1414 304.271 50.892 301.235C51.8033 297.532 54.7875 295.852 58.5401 297.016C60.3091 297.57 62.1318 298.066 63.74 298.964C67.3139 300.987 70.7806 303.183 74.2115 305.455C74.8191 305.855 75.4802 307.211 75.2658 307.707C74.9799 308.414 73.9077 309.044 73.1215 309.158C70.5126 309.521 67.8679 309.616 65.7414 309.769ZM68.8864 320.307C68.8507 320.135 68.8328 319.945 68.7971 319.773C66.9565 319.773 65.0981 319.849 63.2576 319.754C60.5414 319.601 57.7359 319.315 55.6631 317.195C54.5194 316.031 53.5545 314.446 53.0005 312.862C52.3751 311.029 53.7511 309.425 55.2342 309.597C59.7016 310.113 64.1511 310.724 68.6363 310.895C72.5854 311.048 76.0878 312.423 79.4294 314.465C80.0548 314.847 80.9126 315.821 80.8053 316.279C80.6445 316.985 79.7868 317.806 79.0899 317.997C75.7304 318.856 72.2995 319.544 68.8864 320.307ZM68.7077 330.769C68.672 330.597 68.6541 330.445 68.6184 330.273C67.5105 330.273 66.4026 330.349 65.2947 330.254C62.7751 330.025 60.5236 329.07 59.3799 326.531C58.8796 325.424 58.6473 323.686 59.1476 322.713C59.5765 321.873 61.149 321.529 62.2926 321.3C63.2218 321.109 64.2404 321.395 65.2232 321.453C70.4232 321.815 75.7125 321.567 80.7339 323.419C81.6988 323.782 82.4493 324.851 83.2892 325.595C82.5565 326.397 81.8239 327.218 81.0734 327.982C80.9125 328.154 80.6267 328.192 80.3944 328.249C76.4988 329.127 72.6033 329.948 68.7077 330.769ZM79.6438 330.769C80.859 330.922 82.36 330.979 83.7895 331.361C84.6473 331.59 85.3978 332.354 86.184 332.869C85.6479 333.671 85.2548 334.759 84.5222 335.217C80.6088 337.737 76.2308 338.558 71.7455 338.253C69.4761 338.1 67.2603 337.222 65.8665 335.026C64.8301 333.385 65.2232 331.991 66.8672 331.838C71.0308 331.418 75.2122 331.132 79.6438 330.769Z" fill="black"/>
<path d="M65.7415 309.769C67.868 309.616 70.5126 309.521 73.1394 309.177C73.9436 309.063 74.9979 308.433 75.2838 307.726C75.4982 307.211 74.837 305.875 74.2295 305.474C70.7985 303.202 67.3319 300.987 63.758 298.983C62.1497 298.066 60.3092 297.589 58.558 297.035C54.8054 295.871 51.8212 297.551 50.9099 301.255C50.1594 304.271 52.536 307.726 56.0742 308.414C59.0762 308.986 62.1497 309.273 65.7415 309.769Z" fill="white"/>
<path d="M68.8866 320.307C72.2997 319.544 75.7306 318.875 79.1079 317.978C79.8048 317.806 80.6625 316.966 80.8234 316.26C80.9306 315.783 80.0729 314.809 79.4474 314.446C76.1059 312.423 72.6034 311.048 68.6543 310.876C64.1691 310.685 59.7196 310.075 55.2523 309.578C53.7691 309.406 52.3932 311.01 53.0186 312.843C53.5547 314.427 54.5375 315.993 55.6811 317.176C57.754 319.295 60.5416 319.582 63.2756 319.735C65.1162 319.83 66.9746 319.754 68.8151 319.754C68.833 319.945 68.8509 320.116 68.8866 320.307Z" fill="white"/>
<path d="M68.708 330.769C72.6035 329.948 76.4991 329.108 80.3946 328.287C80.6269 328.23 80.9128 328.192 81.0736 328.02C81.842 327.237 82.5568 326.435 83.2894 325.634C82.4317 324.889 81.699 323.82 80.7341 323.457C75.7128 321.605 70.4235 321.854 65.2235 321.491C64.2406 321.415 63.2221 321.147 62.2928 321.338C61.1671 321.567 59.5767 321.911 59.1479 322.751C58.6654 323.705 58.8977 325.462 59.3802 326.569C60.5238 329.089 62.7753 330.063 65.2949 330.292C66.4028 330.387 67.5107 330.311 68.6186 330.311C68.6365 330.445 68.6722 330.616 68.708 330.769Z" fill="white"/>
<path d="M79.6439 330.769C75.2123 331.132 71.0308 331.418 66.8672 331.819C65.2233 331.991 64.8301 333.385 65.8666 335.007C67.2782 337.222 69.4762 338.081 71.7456 338.234C76.2308 338.539 80.6088 337.718 84.5222 335.198C85.2549 334.74 85.6301 333.652 86.1841 332.85C85.3978 332.335 84.6473 331.571 83.7896 331.342C82.36 330.979 80.859 330.941 79.6439 330.769Z" fill="white"/>
</svg>
