<svg width="24" height="24" viewBox="0 0 24 24" fill="none" xmlns="http://www.w3.org/2000/svg">
<path d="M11.7 1.79998L10.575 2.92498C10.35 3.14998 10.35 3.44998 10.575 3.67498L17.625 10.725H2.025C1.725 10.725 1.5 10.95 1.5 11.25V12.825C1.5 13.125 1.725 13.35 2.025 13.35H17.7L10.65 20.4C10.425 20.625 10.425 20.925 10.65 21.15L11.775 22.275C12 22.5 12.3 22.5 12.525 22.275L22.35 12.45C22.575 12.225 22.575 11.925 22.35 11.7L12.45 1.79998C12.3 1.57498 11.925 1.57498 11.7 1.79998Z" fill="white"/>
</svg>
