<svg width="19" height="18" viewBox="0 0 19 18" fill="none" xmlns="http://www.w3.org/2000/svg">
<g clip-path="url(#clip0_30_261)">
<path d="M5.82004 3.19753C3.93953 4.03551 2.43551 5.53953 1.59754 7.42003C1.14522 6.8827 0.898073 6.20239 0.900036 5.50003C0.900036 4.70438 1.21611 3.94132 1.77872 3.37871C2.34132 2.8161 3.10439 2.50003 3.90004 2.50003C4.6024 2.49807 5.28271 2.74521 5.82004 3.19753ZM17.4 5.50003C17.402 6.20239 17.1549 6.8827 16.7025 7.42003C15.8646 5.53953 14.3605 4.03551 12.48 3.19753C13.0174 2.74521 13.6977 2.49807 14.4 2.50003C15.1957 2.50003 15.9587 2.8161 16.5214 3.37871C17.084 3.94132 17.4 4.70438 17.4 5.50003ZM9.90004 1.75003V2.53753C9.65254 2.51503 9.40504 2.50003 9.15004 2.50003C8.89504 2.50003 8.64754 2.51503 8.40004 2.53753V1.75003C8.40004 1.55112 8.47905 1.36035 8.61971 1.2197C8.76036 1.07905 8.95112 1.00003 9.15004 1.00003C9.34895 1.00003 9.53971 1.07905 9.68037 1.2197C9.82102 1.36035 9.90004 1.55112 9.90004 1.75003ZM9.15004 4.00003C7.81501 4.00003 6.50997 4.39591 5.39994 5.13761C4.28991 5.87931 3.42474 6.93352 2.91385 8.16692C2.40296 9.40032 2.26929 10.7575 2.52974 12.0669C2.79019 13.3763 3.43306 14.579 4.37706 15.523C5.32107 16.467 6.5238 17.1099 7.83318 17.3703C9.14255 17.6308 10.4997 17.4971 11.7331 16.9862C12.9665 16.4753 14.0208 15.6102 14.7625 14.5001C15.5042 13.3901 15.9 12.0851 15.9 10.75C15.9 8.95982 15.1889 7.24293 13.923 5.97706C12.6571 4.71119 10.9402 4.00003 9.15004 4.00003ZM9.90004 10.75C9.89999 10.9489 9.82095 11.1397 9.68029 11.2803L7.43029 13.5303C7.28883 13.6669 7.09938 13.7425 6.90274 13.7408C6.70609 13.7391 6.51798 13.6602 6.37892 13.5211C6.23987 13.3821 6.16099 13.194 6.15928 12.9973C6.15757 12.8007 6.23317 12.6112 6.36979 12.4698L8.40004 10.4395V6.25003C8.40004 6.05112 8.47905 5.86035 8.61971 5.7197C8.76036 5.57905 8.95112 5.50003 9.15004 5.50003C9.34895 5.50003 9.53971 5.57905 9.68037 5.7197C9.82102 5.86035 9.90004 6.05112 9.90004 6.25003V10.75Z" fill="white"/>
</g>
<defs>
<clipPath id="clip0_30_261">
<rect width="18" height="18" fill="white" transform="translate(0.150024 3.05176e-05)"/>
</clipPath>
</defs>
</svg>
