<svg width="50" height="50" viewBox="0 0 50 50" fill="none" xmlns="http://www.w3.org/2000/svg">
<path d="M41.6846 31.665L39.0918 27.2705V19.2529C39.0918 17.4854 38.6914 15.7617 37.9004 14.1211C37.1533 12.5781 36.0938 11.1768 34.7559 9.96582C32.2607 7.70508 29.0137 6.33301 25.752 6.14746H25.7471C25.5176 6.13281 25.2881 6.12793 25.0586 6.12305C25.0391 6.12305 25.0195 6.12305 25.0049 6.12305H25C24.9854 6.12305 24.9756 6.12305 24.9609 6.12305C24.7217 6.12305 24.4873 6.13281 24.248 6.14746C21.001 6.34277 17.7686 7.70996 15.2832 9.96582C13.9453 11.1768 12.8906 12.5781 12.1484 14.1211C11.3574 15.7617 10.957 17.4854 10.957 19.2529V27.2705L8.33008 31.6553C7.98828 32.2217 7.8125 32.8711 7.8125 33.5303C7.8125 35.542 9.44824 37.1777 11.46 37.1777H38.54C40.5518 37.1777 42.1875 35.542 42.1875 33.5303V33.5205C42.1875 32.8662 42.0166 32.2266 41.6846 31.665ZM24.4873 13.8379C22.5098 13.8477 20.5859 15.0098 19.6631 16.7285L17.9004 15.7813C18.5156 14.6338 19.4678 13.6475 20.6445 12.9395C21.8311 12.2266 23.1592 11.8457 24.4873 11.8408C24.5215 11.8408 24.5557 11.8408 24.585 11.8408L24.4873 13.8379Z" fill="black"/>
<path d="M31.4404 38.9746L30.7422 40.4102C29.6875 42.583 27.5098 43.8818 24.9121 43.8818C22.6514 43.8818 20.498 42.5732 19.2822 40.4736L18.418 38.9746H31.4404Z" fill="black"/>
</svg>
