<svg width="26" height="25" viewBox="0 0 26 25" fill="none" xmlns="http://www.w3.org/2000/svg">
<g clip-path="url(#clip0_30_231)">
<path d="M12.65 3.05176e-05C10.1778 3.05176e-05 7.76102 0.733143 5.7054 2.10666C3.64979 3.48018 2.04763 5.43241 1.10154 7.71649C0.15544 10.0006 -0.0921012 12.5139 0.390214 14.9387C0.872529 17.3634 2.06304 19.5907 3.8112 21.3389C5.55935 23.087 7.78664 24.2775 10.2114 24.7598C12.6362 25.2422 15.1495 24.9946 17.4336 24.0485C19.7176 23.1024 21.6699 21.5003 23.0434 19.4447C24.4169 17.389 25.15 14.9723 25.15 12.5C25.15 9.18482 23.8331 6.0054 21.4889 3.6612C19.1447 1.31699 15.9652 3.05176e-05 12.65 3.05176e-05ZM12.65 22.9167C10.5898 22.9167 8.57585 22.3058 6.86284 21.1612C5.14983 20.0166 3.8147 18.3897 3.02628 16.4863C2.23787 14.5829 2.03159 12.4885 2.43352 10.4678C2.83545 8.4472 3.82754 6.59113 5.28433 5.13433C6.74113 3.67754 8.5972 2.68545 10.6178 2.28352C12.6385 1.88159 14.7329 2.08787 16.6363 2.87629C18.5397 3.6647 20.1666 4.99983 21.3112 6.71284C22.4558 8.42585 23.0667 10.4398 23.0667 12.5C23.0667 15.2627 21.9692 17.9122 20.0157 19.8657C18.0622 21.8192 15.4127 22.9167 12.65 22.9167Z" fill="black"/>
<path d="M13.6917 4.2396C13.3463 4.19423 12.9984 4.16988 12.6501 4.16669C12.3017 4.16988 11.9538 4.19423 11.6084 4.2396V12.875L17.1396 19.5104C17.7256 19.1359 18.2612 18.6878 18.7334 18.1771L13.6917 12.125V4.2396Z" fill="black"/>
</g>
<defs>
<clipPath id="clip0_30_231">
<rect width="25" height="25" fill="white" transform="translate(0.150024 3.05176e-05)"/>
</clipPath>
</defs>
</svg>
